<svg width="28" height="26" viewBox="0 0 28 26" fill="none" xmlns="http://www.w3.org/2000/svg">
<path d="M1.5 1.75H9C10.3261 1.75 11.5979 2.27678 12.5355 3.21447C13.4732 4.15215 14 5.42392 14 6.75V24.25C14 23.2554 13.6049 22.3016 12.9017 21.5983C12.1984 20.8951 11.2446 20.5 10.25 20.5H1.5V1.75Z" stroke="currentColor" stroke-width="3" stroke-linecap="round" stroke-linejoin="round"/>
<path d="M26.5 1.75H19C17.6739 1.75 16.4021 2.27678 15.4645 3.21447C14.5268 4.15215 14 5.42392 14 6.75V24.25C14 23.2554 14.3951 22.3016 15.0983 21.5983C15.8016 20.8951 16.7554 20.5 17.75 20.5H26.5V1.75Z" stroke="currentColor" stroke-width="3" stroke-linecap="round" stroke-linejoin="round"/>
</svg>
