<svg width="28" height="28" viewBox="0 0 28 28" fill="none" xmlns="http://www.w3.org/2000/svg">
<path d="M20.25 2.74989C20.5783 2.42158 20.9681 2.16116 21.397 1.98348C21.826 1.8058 22.2857 1.71436 22.75 1.71436C23.2143 1.71436 23.674 1.8058 24.103 1.98348C24.5319 2.16116 24.9217 2.42158 25.25 2.74989C25.5783 3.07819 25.8387 3.46795 26.0164 3.8969C26.1941 4.32585 26.2855 4.7856 26.2855 5.24989C26.2855 5.71418 26.1941 6.17393 26.0164 6.60288C25.8387 7.03183 25.5783 7.42158 25.25 7.74989L8.375 24.6249L1.5 26.4999L3.375 19.6249L20.25 2.74989Z" stroke="currentColor" stroke-width="3" stroke-linecap="round" stroke-linejoin="round"/>
</svg>
