<svg width="30" height="30" viewBox="0 0 30 30" fill="none" xmlns="http://www.w3.org/2000/svg">
<path d="M15 27.5C21.9036 27.5 27.5 21.9036 27.5 15C27.5 8.09644 21.9036 2.5 15 2.5C8.09644 2.5 2.5 8.09644 2.5 15C2.5 21.9036 8.09644 27.5 15 27.5Z" stroke="currentColor" stroke-width="3" stroke-linecap="round" stroke-linejoin="round"/>
<path d="M11.3623 11.2502C11.6562 10.4148 12.2362 9.71036 12.9997 9.26164C13.7633 8.81292 14.6609 8.6489 15.5338 8.79861C16.4066 8.94833 17.1983 9.40213 17.7687 10.0796C18.339 10.7571 18.6511 11.6146 18.6498 12.5002C18.6498 15.0002 14.8998 16.2502 14.8998 16.2502" stroke="currentColor" stroke-width="3" stroke-linecap="round" stroke-linejoin="round"/>
<path d="M15 21.25H15.0125" stroke="currentColor" stroke-width="3" stroke-linecap="round" stroke-linejoin="round"/>
</svg>
