<svg width="20" height="20" viewBox="0 0 20 20" fill="none" xmlns="http://www.w3.org/2000/svg">
<path fill-rule="evenodd" clip-rule="evenodd" d="M15 8.125C15.4973 8.125 15.9742 7.92746 16.3258 7.57583C16.6775 7.2242 16.875 6.74728 16.875 6.25C16.875 5.75272 16.6775 5.27581 16.3258 4.92418C15.9742 4.57255 15.4973 4.375 15 4.375C14.5027 4.375 14.0258 4.57255 13.6742 4.92418C13.3225 5.27581 13.125 5.75272 13.125 6.25C13.125 6.74728 13.3225 7.2242 13.6742 7.57583C14.0258 7.92746 14.5027 8.125 15 8.125ZM15 10C15.7014 9.99994 16.3887 9.80319 16.9838 9.4321C17.5789 9.06101 18.0581 8.53045 18.3668 7.90069C18.6756 7.27093 18.8015 6.56721 18.7303 5.86947C18.6591 5.17173 18.3937 4.50793 17.9642 3.95347C17.5347 3.39902 16.9583 2.97613 16.3005 2.73284C15.6427 2.48955 14.9298 2.43562 14.2429 2.57716C13.5559 2.71871 12.9225 3.05006 12.4144 3.53358C11.9438 3.98145 11.5983 4.54324 11.4106 5.16333C11.3841 5.25062 11.305 5.3125 11.2138 5.3125H2.1875C1.93886 5.3125 1.7004 5.41127 1.52459 5.58709C1.34877 5.7629 1.25 6.00136 1.25 6.25C1.25 6.49864 1.34877 6.7371 1.52459 6.91291C1.7004 7.08873 1.93886 7.1875 2.1875 7.1875H11.2139C11.3051 7.1875 11.3842 7.24935 11.4106 7.33661C11.6359 8.08032 12.0872 8.73707 12.7036 9.21448C13.3609 9.72355 14.1686 9.99986 15 10ZM6.875 13.75C6.875 14.2473 6.67746 14.7242 6.32583 15.0758C5.9742 15.4275 5.49728 15.625 5 15.625C4.50272 15.625 4.02581 15.4275 3.67418 15.0758C3.32254 14.7242 3.125 14.2473 3.125 13.75C3.125 13.2527 3.32254 12.7758 3.67418 12.4242C4.02581 12.0725 4.50272 11.875 5 11.875C5.49728 11.875 5.9742 12.0725 6.32583 12.4242C6.67746 12.7758 6.875 13.2527 6.875 13.75ZM8.78581 14.6875C8.69478 14.6875 8.61577 14.7492 8.5892 14.8362C8.33917 15.6558 7.8154 16.3668 7.10312 16.8486C6.34808 17.3594 5.43289 17.5777 4.52859 17.4629C3.62428 17.348 2.79274 16.9078 2.18936 16.2245C1.58599 15.5412 1.25206 14.6616 1.25 13.75C1.24969 12.8371 1.58243 11.9553 2.18583 11.2702C2.78923 10.5851 3.62183 10.1436 4.5275 10.0286C5.43318 9.91358 6.34971 10.1329 7.10522 10.6454C7.81789 11.1289 8.34111 11.8419 8.58947 12.6633C8.61587 12.7506 8.695 12.8125 8.78623 12.8125H17.8125C18.0611 12.8125 18.2996 12.9113 18.4754 13.0871C18.6512 13.2629 18.75 13.5014 18.75 13.75C18.75 13.9986 18.6512 14.2371 18.4754 14.4129C18.2996 14.5887 18.0611 14.6875 17.8125 14.6875H8.78581Z" fill="currentColor"/>
</svg>
