<svg width="26" height="26" viewBox="0 0 26 26" fill="none" xmlns="http://www.w3.org/2000/svg">
<path d="M22.623 14.487C22.4152 14.3245 22.3102 14.065 22.335 13.8024C22.3597 13.5409 22.3756 13.2757 22.3756 13C22.3756 12.7243 22.3597 12.4591 22.335 12.1976C22.3102 11.935 22.4152 11.6755 22.623 11.5131L24.9256 9.71249C25.1631 9.52499 25.2256 9.18749 25.0756 8.9125L22.5756 4.5875C22.4256 4.31249 22.0881 4.2125 21.8131 4.31249L19.098 5.40292C18.8517 5.50181 18.5728 5.46131 18.3556 5.30879C17.9206 5.0033 17.4636 4.73585 16.981 4.50989C16.7403 4.39715 16.5649 4.17589 16.5271 3.91271L16.1131 1.025C16.0756 0.725 15.8131 0.5 15.5005 0.5H10.5005C10.188 0.5 9.92553 0.725 9.88803 1.025L9.47395 3.91271C9.43621 4.17589 9.26082 4.39709 9.02044 4.51065C8.53663 4.73924 8.07853 5.01206 7.64266 5.3152C7.42747 5.46485 7.152 5.50285 6.90877 5.40517L4.18803 4.31249C3.90054 4.19999 3.57553 4.31249 3.42553 4.5875L0.925528 8.9125C0.763033 9.18749 0.838033 9.52499 1.07553 9.71249L3.37809 11.5131C3.58585 11.6755 3.691 11.935 3.66634 12.1976C3.64144 12.4628 3.62553 12.7314 3.62553 13C3.62553 13.2687 3.64144 13.5372 3.66634 13.8024C3.691 14.065 3.58585 14.3245 3.37809 14.487L1.07553 16.2876C0.838033 16.4751 0.775528 16.8126 0.925528 17.0875L3.42553 21.4125C3.57553 21.6876 3.91303 21.7875 4.18803 21.6876L6.90316 20.5971C7.14942 20.4982 7.42831 20.5387 7.64547 20.6913C8.08039 20.9967 8.53744 21.2641 9.02008 21.4902C9.26088 21.6028 9.43621 21.8241 9.47395 22.0873L9.88803 24.975C9.92553 25.275 10.188 25.5 10.5005 25.5H15.5005C15.8131 25.5 16.0756 25.275 16.1131 24.975L16.5271 22.0873C16.5649 21.8241 16.7403 21.603 16.9807 21.4893C17.4645 21.2608 17.9226 20.988 18.3585 20.6848C18.5736 20.5351 18.8491 20.4972 19.0923 20.5948L21.8131 21.6876C22.1005 21.8001 22.4256 21.6876 22.5756 21.4125L25.0756 17.0875C25.2256 16.8126 25.1631 16.4751 24.9256 16.2876L22.623 14.487ZM13.0006 17.3751C10.588 17.3751 8.62554 15.4125 8.62554 13C8.62554 10.5875 10.588 8.62499 13.0006 8.62499C15.4131 8.62499 17.3755 10.5875 17.3755 13C17.3755 15.4125 15.4131 17.3751 13.0006 17.3751Z" fill="currentColor"/>
</svg>
