<svg width="29" height="29" viewBox="0 0 29 29" fill="none" xmlns="http://www.w3.org/2000/svg">
<path d="M12.75 5H4C3.33696 5 2.70107 5.26339 2.23223 5.73223C1.76339 6.20107 1.5 6.83696 1.5 7.5V25C1.5 25.663 1.76339 26.2989 2.23223 26.7678C2.70107 27.2366 3.33696 27.5 4 27.5H21.5C22.163 27.5 22.7989 27.2366 23.2678 26.7678C23.7366 26.2989 24 25.663 24 25V16.25" stroke="currentColor" stroke-width="3" stroke-linecap="round" stroke-linejoin="round"/>
<path d="M22.125 3.12479C22.6223 2.62751 23.2967 2.34814 24 2.34814C24.7033 2.34814 25.3777 2.62751 25.875 3.12479C26.3723 3.62208 26.6517 4.29653 26.6517 4.99979C26.6517 5.70306 26.3723 6.37751 25.875 6.87479L14 18.7498L9 19.9998L10.25 14.9998L22.125 3.12479Z" stroke="currentColor" stroke-width="3" stroke-linecap="round" stroke-linejoin="round"/>
</svg>
