<svg width="30" height="16" viewBox="0 0 30 16" fill="none" xmlns="http://www.w3.org/2000/svg">
<path d="M18.75 1.75H22.5C23.3208 1.75 24.1335 1.91166 24.8918 2.22575C25.6501 2.53984 26.3391 3.00022 26.9194 3.58058C27.4998 4.16095 27.9602 4.84994 28.2742 5.60823C28.5883 6.36651 28.75 7.17924 28.75 8C28.75 8.82076 28.5883 9.63349 28.2742 10.3918C27.9602 11.1501 27.4998 11.8391 26.9194 12.4194C26.3391 12.9998 25.6501 13.4602 24.8918 13.7742C24.1335 14.0883 23.3208 14.25 22.5 14.25H18.75M11.25 14.25H7.5C6.67924 14.25 5.86651 14.0883 5.10823 13.7742C4.34994 13.4602 3.66095 12.9998 3.08058 12.4194C1.90848 11.2473 1.25 9.6576 1.25 8C1.25 6.3424 1.90848 4.75269 3.08058 3.58058C4.25269 2.40848 5.8424 1.75 7.5 1.75H11.25" stroke="currentColor" stroke-width="3" stroke-linecap="round" stroke-linejoin="round"/>
<path d="M10 8H20" stroke="currentColor" stroke-width="3" stroke-linecap="round" stroke-linejoin="round"/>
</svg>
