<svg width="30" height="26" viewBox="0 0 30 26" fill="none" xmlns="http://www.w3.org/2000/svg">
<path d="M20 24.25V21.75C20 20.4239 19.4732 19.1521 18.5355 18.2145C17.5979 17.2768 16.3261 16.75 15 16.75H6.25C4.92392 16.75 3.65215 17.2768 2.71447 18.2145C1.77678 19.1521 1.25 20.4239 1.25 21.75V24.25" stroke="currentColor" stroke-width="3" stroke-linecap="round" stroke-linejoin="round"/>
<path d="M10.625 11.75C13.3864 11.75 15.625 9.51142 15.625 6.75C15.625 3.98858 13.3864 1.75 10.625 1.75C7.86358 1.75 5.625 3.98858 5.625 6.75C5.625 9.51142 7.86358 11.75 10.625 11.75Z" stroke="currentColor" stroke-width="3" stroke-linecap="round" stroke-linejoin="round"/>
<path d="M22.5 8L28.75 14.25" stroke="currentColor" stroke-width="3" stroke-linecap="round" stroke-linejoin="round"/>
<path d="M28.75 8L22.5 14.25" stroke="currentColor" stroke-width="3" stroke-linecap="round" stroke-linejoin="round"/>
</svg>
